<?xml version="1.0" standalone="no"?><!DOCTYPE svg PUBLIC "-//W3C//DTD SVG 1.1//EN" "http://www.w3.org/Graphics/SVG/1.1/DTD/svg11.dtd"><svg t="1685927901698" class="icon" viewBox="0 0 1024 1024" version="1.1" xmlns="http://www.w3.org/2000/svg" p-id="1983" xmlns:xlink="http://www.w3.org/1999/xlink" width="64" height="64"><path d="M933.418667 810.24l30.976 7.893333-30.976-7.893333z m-512 0l30.976 7.893333-30.976-7.893333zM276.053333 404.053333a32 32 0 0 0 45.226667 45.226667L276.053333 404.053333z m210.944-45.056l-22.613333 22.613334 22.613333-22.613334z m45.056 90.282667a32 32 0 1 0 45.226667-45.226667l-45.226667 45.226667zM458.666667 341.333333a32 32 0 0 0-64 0h64z m-64 213.333334a32 32 0 0 0 64 0h-64z m507.733333 247.68A138.752 138.752 0 0 1 768 906.666667v64c94.677333 0 174.08-64.853333 196.394667-152.533334l-61.994667-15.786666z m-512 0A138.752 138.752 0 0 1 256 906.666667v64c94.677333 0 174.08-64.853333 196.394667-152.533334l-61.994667-15.786666zM53.333333 768A202.666667 202.666667 0 0 0 256 970.666667v-64A138.666667 138.666667 0 0 1 117.333333 768h-64zM768 906.666667H256v64h512v-64zM117.333333 768V213.333333h-64v554.666667h64zM213.333333 117.333333h426.666667v-64H213.333333v64z m256 682.666667h298.666667v-64h-298.666667v64z m298.666667 0h128v-64h-128v64zM736 213.333333v554.666667h64V213.333333h-64zM640 117.333333A96 96 0 0 1 736 213.333333h64A160 160 0 0 0 640 53.333333v64z m-187.605333 700.8a29.44 29.44 0 0 1 8.106666-14.08 12.928 12.928 0 0 1 8.832-4.053333v-64c-42.624 0-70.741333 34.133333-78.933333 66.346667l61.994667 15.786666zM117.333333 213.333333A96 96 0 0 1 213.333333 117.333333v-64A160 160 0 0 0 53.333333 213.333333h64z m847.061334 604.8c12.373333-48.64-30.122667-82.133333-68.394667-82.133333v64c3.157333 0 5.333333 1.365333 6.229333 2.304 0.384 0.426667 0.341333 0.512 0.256 0.256-0.085333-0.384 0-0.554667-0.085333-0.213333l61.994667 15.786666zM321.28 449.28l67.669333-67.626667-45.226666-45.269333L276.053333 404.053333l45.226667 45.226667z m143.104-67.626667l67.669333 67.626667 45.226667-45.226667-67.626667-67.669333-45.269333 45.226667zM394.666667 341.333333v213.333334h64V341.333333h-64z m-5.717334 40.32a53.333333 53.333333 0 0 1 75.434667 0l45.226667-45.269333a117.333333 117.333333 0 0 0-165.930667 0l45.269333 45.226667z" p-id="1984"></path></svg>